<?xml version="1.0" encoding="UTF-8" standalone="no"?>
<svg
   height="48"
   viewBox="0 -960 960 960"
   width="48"
   version="1.1"
   id="svg4"
   sodipodi:docname="cart.svg"
   inkscape:version="1.1.2 (0a00cf5339, 2022-02-04)"
   xmlns:inkscape="http://www.inkscape.org/namespaces/inkscape"
   xmlns:sodipodi="http://sodipodi.sourceforge.net/DTD/sodipodi-0.dtd"
   xmlns="http://www.w3.org/2000/svg"
   xmlns:svg="http://www.w3.org/2000/svg">
  <defs
     id="defs8" />
  <sodipodi:namedview
     id="namedview6"
     pagecolor="#ffffff"
     bordercolor="#666666"
     borderopacity="1.0"
     inkscape:pageshadow="2"
     inkscape:pageopacity="0.0"
     inkscape:pagecheckerboard="0"
     showgrid="false"
     inkscape:zoom="11.583333"
     inkscape:cx="24"
     inkscape:cy="24"
     inkscape:window-width="1366"
     inkscape:window-height="736"
     inkscape:window-x="0"
     inkscape:window-y="0"
     inkscape:window-maximized="1"
     inkscape:current-layer="svg4" />
  <path
     d="M286.788-81Q257-81 236-102.212q-21-21.213-21-51Q215-183 236.212-204q21.213-21 51-21Q317-225 338-203.788q21 21.213 21 51Q359-123 337.788-102q-21.213 21-51 21Zm400 0Q657-81 636-102.212q-21-21.213-21-51Q615-183 636.212-204q21.213-21 51-21Q717-225 738-203.788q21 21.213 21 51Q759-123 737.788-102q-21.213 21-51 21ZM235-741l110 228h288l125-228H235Zm-30-60h589.074q22.964 0 34.945 21Q841-759 829-738L694-495q-11 19-28.559 30.5Q647.881-453 627-453H324l-56 104h491v60H277q-42 0-60.5-28t.5-63l64-118-152-322H51v-60h117l37 79Zm140 288h288-288Z"
     id="path2"
     style="fill:#ffffff" />
</svg>
