<?xml version="1.0" encoding="UTF-8" standalone="no"?>
<svg
   height="48"
   viewBox="0 -960 960 960"
   width="48"
   version="1.1"
   id="svg4"
   sodipodi:docname="receipt.svg"
   inkscape:version="1.1.2 (0a00cf5339, 2022-02-04)"
   xmlns:inkscape="http://www.inkscape.org/namespaces/inkscape"
   xmlns:sodipodi="http://sodipodi.sourceforge.net/DTD/sodipodi-0.dtd"
   xmlns="http://www.w3.org/2000/svg"
   xmlns:svg="http://www.w3.org/2000/svg">
  <defs
     id="defs8" />
  <sodipodi:namedview
     id="namedview6"
     pagecolor="#ffffff"
     bordercolor="#666666"
     borderopacity="1.0"
     inkscape:pageshadow="2"
     inkscape:pageopacity="0.0"
     inkscape:pagecheckerboard="0"
     showgrid="false"
     inkscape:zoom="11.583333"
     inkscape:cx="24"
     inkscape:cy="24"
     inkscape:window-width="1366"
     inkscape:window-height="736"
     inkscape:window-x="0"
     inkscape:window-y="0"
     inkscape:window-maximized="1"
     inkscape:current-layer="svg4" />
  <path
     d="M222-80q-43.75 0-74.375-30.625T117-185v-125h127v-570l59.8 60 59.8-60 59.8 60 59.8-60 59.8 60 60-60 60 60 60-60 60 60 60-60v695q0 43.75-30.625 74.375T738-80H222Zm516-60q20 0 32.5-12.5T783-185v-595H304v470h389v125q0 20 12.5 32.5T738-140ZM357-622v-60h240v60H357Zm0 134v-60h240v60H357Zm333-134q-12 0-21-9t-9-21q0-12 9-21t21-9q12 0 21 9t9 21q0 12-9 21t-21 9Zm0 129q-12 0-21-9t-9-21q0-12 9-21t21-9q12 0 21 9t9 21q0 12-9 21t-21 9ZM221-140h412v-110H177v65q0 20 12.65 32.5T221-140Zm-44 0v-110 110Z"
     id="path2"
     style="fill:#ffffff" />
</svg>
